<?xml version="1.0" encoding="UTF-8" standalone="no"?>
<!-- Created with Inkscape (http://www.inkscape.org/) -->

<svg
   width="210mm"
   height="297mm"
   viewBox="0 0 210 297"
   version="1.1"
   id="svg1"
   xml:space="preserve"
   xmlns:xlink="http://www.w3.org/1999/xlink"
   xmlns="http://www.w3.org/2000/svg"
   xmlns:svg="http://www.w3.org/2000/svg"><defs
     id="defs1"><linearGradient
       id="linearGradient7"><stop
         style="stop-color:#7cff4d;stop-opacity:1;"
         offset="0"
         id="stop7" /><stop
         style="stop-color:#7cff4d;stop-opacity:0;"
         offset="1"
         id="stop8" /></linearGradient><linearGradient
       xlink:href="#linearGradient7"
       id="linearGradient8"
       x1="28.826382"
       y1="195.61835"
       x2="44.476521"
       y2="195.61835"
       gradientUnits="userSpaceOnUse"
       gradientTransform="matrix(0.99470531,0,0,0.99470531,167.00463,-252.36804)" /></defs><g
     id="layer4"><rect
       style="fill:url(#linearGradient8);fill-opacity:1;stroke-width:0"
       id="rect1-2"
       width="67.729073"
       height="15.727651"
       x="170.86194"
       y="-44.615486"
       ry="6.7100425"
       transform="rotate(90)" /><text
       xml:space="preserve"
       style="font-weight:bold;font-size:9.87778px;line-height:1;font-family:'SF Pro Text';-inkscape-font-specification:'SF Pro Text Bold';text-align:center;letter-spacing:0px;word-spacing:0.343958px;text-anchor:middle;fill:#000000;fill-opacity:1;stroke:none;stroke-width:0;stroke-opacity:1"
       x="56.954815"
       y="74.866875"
       id="text8"><tspan
         style="font-style:normal;font-variant:normal;font-weight:bold;font-stretch:normal;font-size:9.87778px;font-family:'SF Pro Text';-inkscape-font-specification:'SF Pro Text Bold';text-align:center;text-anchor:middle;fill:#000000;fill-opacity:1;stroke-width:0"
         x="56.954815"
         y="74.866875"
         id="tspan10">           Today</tspan><tspan
         style="font-style:normal;font-variant:normal;font-weight:normal;font-stretch:normal;font-size:9.87778px;font-family:'SF Pro Text';-inkscape-font-specification:'SF Pro Text';text-align:start;text-anchor:start;fill:#000000;fill-opacity:1;stroke-width:0"
         x="56.954815"
         y="84.744652"
         id="tspan13">Start your full</tspan><tspan
         style="font-style:normal;font-variant:normal;font-weight:normal;font-stretch:normal;font-size:9.87778px;font-family:'SF Pro Text';-inkscape-font-specification:'SF Pro Text';text-align:start;text-anchor:start;fill:#000000;fill-opacity:1;stroke-width:0"
         x="56.954815"
         y="94.622437"
         id="tspan11">access to the app</tspan><tspan
         style="font-size:9.87778px;fill:#000000;fill-opacity:1;stroke-width:0"
         x="56.954815"
         y="104.50021"
         id="tspan9" /></text><text
       xml:space="preserve"
       style="font-weight:bold;font-size:9.87778px;line-height:1;font-family:'SF Pro Text';-inkscape-font-specification:'SF Pro Text Bold';text-align:center;letter-spacing:0px;word-spacing:0.343958px;text-anchor:middle;fill:#000000;fill-opacity:1;stroke:none;stroke-width:0;stroke-opacity:1"
       x="57.53796"
       y="128.04282"
       id="text8-6"><tspan
         style="font-style:normal;font-variant:normal;font-weight:bold;font-stretch:normal;font-size:9.87778px;font-family:'SF Pro Text';-inkscape-font-specification:'SF Pro Text Bold';text-align:center;text-anchor:middle;fill:#000000;fill-opacity:1;stroke-width:0"
         x="57.53796"
         y="128.04282"
         id="tspan10-1">                    In 23 days</tspan><tspan
         style="font-style:normal;font-variant:normal;font-weight:normal;font-stretch:normal;font-size:9.87778px;font-family:'SF Pro Text';-inkscape-font-specification:'SF Pro Text';text-align:start;text-anchor:start;fill:#000000;fill-opacity:1;stroke-width:0"
         x="57.53796"
         y="137.92059"
         id="tspan14">Get a reminder about</tspan><tspan
         style="font-style:normal;font-variant:normal;font-weight:normal;font-stretch:normal;font-size:9.87778px;font-family:'SF Pro Text';-inkscape-font-specification:'SF Pro Text';text-align:start;text-anchor:start;fill:#000000;fill-opacity:1;stroke-width:0"
         x="57.53796"
         y="147.79837"
         id="tspan15">when your trial will end.</tspan><tspan
         style="font-size:9.87778px;fill:#000000;fill-opacity:1;stroke-width:0"
         x="57.53796"
         y="157.67616"
         id="tspan9-1" /></text><text
       xml:space="preserve"
       style="font-weight:bold;font-size:9.87778px;line-height:1;font-family:'SF Pro Text';-inkscape-font-specification:'SF Pro Text Bold';text-align:center;letter-spacing:0px;word-spacing:0.343958px;text-anchor:middle;fill:#000000;fill-opacity:1;stroke:none;stroke-width:0;stroke-opacity:1"
       x="57.702484"
       y="179.73364"
       id="text8-6-4"><tspan
         style="font-style:normal;font-variant:normal;font-weight:bold;font-stretch:normal;font-size:9.87778px;font-family:'SF Pro Text';-inkscape-font-specification:'SF Pro Text Bold';text-align:center;text-anchor:middle;fill:#000000;fill-opacity:1;stroke-width:0"
         x="57.702484"
         y="179.73364"
         id="tspan10-1-5">                    In 30 days</tspan><tspan
         style="font-style:normal;font-variant:normal;font-weight:normal;font-stretch:normal;font-size:9.87778px;font-family:'SF Pro Text';-inkscape-font-specification:'SF Pro Text';text-align:start;text-anchor:start;fill:#000000;fill-opacity:1;stroke-width:0"
         x="57.702484"
         y="189.61142"
         id="tspan15-3">You'll be charged today,</tspan><tspan
         style="font-style:normal;font-variant:normal;font-weight:normal;font-stretch:normal;font-size:9.87778px;font-family:'SF Pro Text';-inkscape-font-specification:'SF Pro Text';text-align:start;text-anchor:start;fill:#000000;fill-opacity:1;stroke-width:0"
         x="57.702484"
         y="199.4892"
         id="tspan16">cancel anytime before.</tspan><tspan
         style="font-size:9.87778px;fill:#000000;fill-opacity:1;stroke-width:0"
         x="57.702484"
         y="209.36699"
         id="tspan9-1-6" /></text><text
       xml:space="preserve"
       style="font-style:normal;font-variant:normal;font-weight:normal;font-stretch:normal;font-size:9.87777px;line-height:1;font-family:'SF Pro Text';-inkscape-font-specification:'SF Pro Text';text-align:start;letter-spacing:0px;word-spacing:0.343958px;text-anchor:start;fill:#000000;fill-opacity:1;stroke:none;stroke-width:0;stroke-opacity:1"
       x="36.998306"
       y="235.39301"
       id="text17"><tspan
         id="tspan17"
         style="stroke-width:0"
         x="36.998306"
         y="235.39301">30-day free trial, then €9 / month</tspan></text></g><g
     id="layer1"><rect
       style="fill:#5a63e2;fill-opacity:1;stroke-width:0"
       id="rect1"
       width="15.650138"
       height="120.37883"
       x="28.904415"
       y="66.860275"
       ry="7.825069" /><g
       style="fill:none;stroke:#ffffff;stroke-width:1.5;stroke-opacity:1"
       id="g3"
       transform="matrix(0.44255868,0,0,0.44255868,31.620951,71.622694)"><path
         stroke-linecap="round"
         stroke-linejoin="round"
         d="M 13.5,10.5 V 6.75 a 4.5,4.5 0 1 1 9,0 V 10.5 M 3.75,21.75 h 10.5 A 2.25,2.25 0 0 0 16.5,19.5 V 12.75 A 2.25,2.25 0 0 0 14.25,10.5 H 3.75 A 2.25,2.25 0 0 0 1.5,12.75 v 6.75 a 2.25,2.25 0 0 0 2.25,2.25 z"
         id="path1"
         style="stroke:#ffffff;stroke-opacity:1" /></g><g
       style="fill:none;stroke:#ffffff;stroke-width:1.5;stroke-opacity:1"
       id="g5"
       transform="matrix(0.46642131,0,0,0.46642131,30.904247,122.22991)"><path
         stroke-linecap="round"
         stroke-linejoin="round"
         d="M 14.857,17.082 A 23.848,23.848 0 0 0 20.311,15.772 8.967,8.967 0 0 1 18,9.75 V 9 A 6,6 0 0 0 6,9 v 0.75 a 8.967,8.967 0 0 1 -2.312,6.022 c 1.733,0.64 3.56,1.085 5.455,1.31 m 5.714,0 a 24.255,24.255 0 0 1 -5.714,0 m 5.714,0 a 3,3 0 1 1 -5.714,0 M 3.124,7.5 A 8.969,8.969 0 0 1 5.292,3 m 13.416,0 a 8.969,8.969 0 0 1 2.168,4.5"
         id="path1-2"
         style="stroke:#ffffff;stroke-opacity:1" /></g><g
       style="fill:none;stroke:#ffffff;stroke-width:1.5;stroke-opacity:1"
       id="g6"
       transform="matrix(0.55563307,0,0,0.55563307,30.066214,171.78557)"><path
         stroke-linecap="round"
         stroke-linejoin="round"
         d="m 11.48,3.499 a 0.562,0.562 0 0 1 1.04,0 l 2.125,5.111 a 0.563,0.563 0 0 0 0.475,0.345 l 5.518,0.442 c 0.499,0.04 0.701,0.663 0.321,0.988 l -4.204,3.602 a 0.563,0.563 0 0 0 -0.182,0.557 l 1.285,5.385 a 0.562,0.562 0 0 1 -0.84,0.61 l -4.725,-2.885 a 0.562,0.562 0 0 0 -0.586,0 L 6.982,20.54 A 0.562,0.562 0 0 1 6.142,19.93 L 7.427,14.544 A 0.562,0.562 0 0 0 7.245,13.987 L 3.041,10.385 A 0.562,0.562 0 0 1 3.362,9.397 L 8.88,8.955 A 0.563,0.563 0 0 0 9.355,8.61 L 11.48,3.5 Z"
         id="path1-7"
         style="stroke:#ffffff;stroke-opacity:1" /></g><text
       xml:space="preserve"
       style="font-weight:bold;font-size:11.2889px;line-height:1;font-family:'SF Pro Text';-inkscape-font-specification:'SF Pro Text Bold';text-align:center;letter-spacing:0px;word-spacing:0.343958px;text-anchor:middle;fill:#5a63e2;fill-opacity:1;stroke:#000000;stroke-width:0;stroke-opacity:1"
       x="102.6998"
       y="36.903854"
       id="text6"><tspan
         id="tspan6"
         style="fill:#000000;fill-opacity:1;stroke:none;stroke-width:0;stroke-opacity:1"
         x="102.6998"
         y="36.903854">How your free</tspan><tspan
         style="fill:#000000;fill-opacity:1;stroke:none;stroke-width:0;stroke-opacity:1"
         x="102.6998"
         y="48.192757"
         id="tspan7">trial works</tspan></text></g></svg>
