<?xml version="1.0" encoding="UTF-8" standalone="no"?>
<!-- Created with Inkscape (http://www.inkscape.org/) -->

<svg
   width="135.46803mm"
   height="135.62375mm"
   viewBox="0 0 135.46803 135.62375"
   version="1.1"
   id="svg1"
   xml:space="preserve"
   xmlns="http://www.w3.org/2000/svg"
   xmlns:svg="http://www.w3.org/2000/svg"><defs
     id="defs1" /><g
     id="layer1"
     transform="translate(-37.613595,-85.822591)"><rect
       style="fill:#5a63e2;fill-opacity:1;stroke:none;stroke-width:1.397;stroke-opacity:1"
       id="rect1"
       width="135.46803"
       height="135.46803"
       x="37.613594"
       y="85.822586"
       ry="25.240786" /><path
       style="fill:#ffd701;fill-opacity:1;stroke:none;stroke-width:1.5034;stroke-opacity:1"
       id="rect2"
       width="28.286007"
       height="111.86839"
       x="91.409279"
       y="109.49603"
       d="m 96.425479,109.49603 18.253611,0 a 5.0162,5.0162 45 0 1 5.0162,5.0162 v 106.8522 H 91.409279 v -106.8522 a 5.0162,5.0162 135 0 1 5.0162,-5.0162 z"
       transform="matrix(0.78120456,0,0,0.76306454,22.964033,52.530997)" /><path
       style="fill:#22c55e;fill-opacity:1;stroke:none;stroke-width:1.5034;stroke-opacity:1"
       id="rect2-2"
       width="28.286007"
       height="111.86839"
       x="91.409279"
       y="109.49603"
       d="m 96.425479,109.49603 18.253611,0 a 5.0162,5.0162 45 0 1 5.0162,5.0162 v 106.8522 H 91.409279 v -106.8522 a 5.0162,5.0162 135 0 1 5.0162,-5.0162 z"
       transform="matrix(0.78120456,0,0,0.50961039,-10.020322,108.38563)" /><path
       style="fill:#ef4444;fill-opacity:1;stroke:none;stroke-width:1.5034;stroke-opacity:1"
       id="rect2-5"
       width="28.286007"
       height="111.86839"
       x="91.409279"
       y="109.49603"
       d="m 96.425479,109.49603 18.253611,0 a 5.0162,5.0162 45 0 1 5.0162,5.0162 v 106.8522 H 91.409279 v -106.8522 a 5.0162,5.0162 135 0 1 5.0162,-5.0162 z"
       transform="matrix(0.78120456,0,0,0.2757243,54.320631,160.27268)" /><path
       style="fill:#ffffff;fill-opacity:1;stroke:none;stroke-width:1.397;stroke-opacity:1"
       id="path2"
       d="m 128.14118,114.6531 c 0,1.77316 0,3.54633 0,5.31949 0,1.68305 0,3.3661 0,5.04915 0,1.06271 0,2.12543 0,3.18814 0.0987,0.31839 0.11269,0.67678 0.296,0.95518 1.01489,1.54136 3.25509,1.39436 4.85165,1.46172 2.15273,0.0526 4.30417,0.009 6.45466,0.12765 1.50069,0.1255 2.96813,0.46453 4.46021,0.65585 1.57165,0.35279 3.1422,0.70876 4.7122,1.06855 1.46407,0.35232 2.94799,0.59207 4.44502,0.74691 0.84663,0.0647 1.6968,0.11592 2.54639,0.11452 0.18605,-2.6e-4 0.37971,0.0396 0.55799,-0.0136 0.4071,-0.12148 0.78087,-0.33495 1.1713,-0.50243 0.24477,-0.30679 0.54076,-0.57895 0.73431,-0.92037 0.78763,-1.38939 0.56856,-3.64281 0.4481,-5.18121 -0.22376,-2.38185 -0.2827,-4.77409 -0.42382,-7.16156 -0.0625,-1.05682 -0.12611,-2.11362 -0.17922,-3.17097 -0.003,-0.0535 -0.0491,-1.24661 -0.0887,-1.34909 -0.15859,-0.41081 -0.42318,-0.7724 -0.63477,-1.15859 -0.46873,-0.17858 -0.90498,-0.51614 -1.4062,-0.53574 -1.72472,-0.0674 -3.48558,2.50462 -4.42326,3.69505 -0.9539,1.1975 -2.05666,2.2667 -3.14269,3.34262 -0.56607,0.61758 -0.16815,0.0886 -0.11898,0.0873 0.48785,-0.0129 0.97634,0.0324 1.4617,0.0833 0.0677,0.007 0.18128,0.15729 0.18383,0.0892 0.006,-0.17131 -0.11375,-0.32344 -0.16897,-0.48574 -0.0833,-0.24499 -0.16446,-0.49074 -0.2467,-0.73611 -0.50152,-1.56608 -0.99635,-3.12676 -1.8055,-4.56375 -0.68802,-1.15547 -1.80677,-1.78843 -3.18289,-1.51505 -0.35102,0.0697 -0.67816,0.22895 -1.01723,0.34343 -1.83355,0.92879 -3.31347,2.39014 -4.76439,3.81788 -0.79044,0.75485 -1.50209,1.59139 -2.30819,2.32951 0.0224,-0.46509 0.7531,-0.16509 0.82865,-0.27985 0.0576,-0.0875 -0.10008,-0.18419 -0.14503,-0.27881 -0.26639,-0.56078 -0.22687,-0.50559 -0.4493,-1.13731 -0.37059,-0.96454 -0.47011,-2.00359 -0.95251,-2.92612 -0.32053,-0.61297 -0.5039,-0.75372 -0.9611,-1.26455 -0.84881,-0.81142 -1.87871,-1.36385 -2.91036,-1.90051 -0.46107,-0.2142 -0.2329,-0.11606 -0.68378,-0.29614 -1.97612,-0.77328 -3.06969,2.02138 -1.09357,2.79465 v 0 c 0.24833,0.0933 0.11561,0.0392 0.39658,0.16598 0.73381,0.37843 1.47047,0.75684 2.10561,1.29259 0.54324,0.50799 0.57126,0.7415 0.7696,1.48483 0.20725,0.77668 0.25986,0.9033 0.51226,1.68318 0.64764,1.71738 1.55663,3.84686 3.8505,3.29596 0.28673,-0.0689 0.51455,-0.28821 0.77182,-0.43232 0.8214,-0.76703 1.57131,-1.60643 2.37428,-2.39262 1.1596,-1.14237 2.33351,-2.31213 3.73601,-3.1553 0.10682,-0.0576 0.40493,-0.20173 0.3997,-0.24462 -0.0177,-0.14524 -0.39922,-0.1926 -0.14782,-0.20414 0.0413,-0.002 0.0691,0.047 0.0962,0.0782 0.0603,0.0694 0.10963,0.1476 0.16444,0.2214 0.72301,1.26342 1.10948,2.66413 1.57106,4.03855 0.16969,0.50473 0.64129,2.18919 1.10543,2.44024 1.3167,0.7122 1.88624,0.4948 2.74236,-0.30287 1.17155,-1.16396 2.36159,-2.3192 3.38732,-3.61708 0.34447,-0.43817 0.87185,-1.1215 1.24298,-1.54577 0.17629,-0.20154 0.36685,-0.39014 0.55012,-0.58535 0.10062,-0.10716 0.29925,-0.1748 0.30153,-0.32178 0.005,-0.34632 -1.45644,0.31456 -0.86836,-0.57065 -0.0365,-0.18884 0.0254,-0.42941 -0.10951,-0.56653 -0.11784,-0.11981 0.0351,0.33435 0.0461,0.50204 0.0854,1.30848 0.11489,2.62093 0.21517,3.92865 0.1424,2.40744 0.2018,4.81971 0.42797,7.22148 0.0664,0.82745 0.12642,1.63147 0.0843,2.46184 -0.01,0.19405 -0.0249,0.38787 -0.0438,0.58124 -0.0103,0.10513 -0.0797,0.2145 -0.0439,0.31386 0.0179,0.0497 0.10565,0.002 0.15848,0.004 0.13362,0.002 0.48706,-0.0956 0.40085,0.007 -0.0898,0.10636 -0.27818,0.0127 -0.41737,0.013 -0.76688,0.002 -1.53438,-0.0431 -2.29876,-0.0994 -1.37501,-0.13976 -2.73686,-0.36261 -4.08112,-0.6868 -1.66619,-0.38162 -3.3311,-0.76943 -5.00405,-1.1204 -1.56316,-0.1966 -3.0991,-0.56782 -4.67413,-0.67528 -2.16419,-0.11827 -4.32892,-0.083 -6.49538,-0.12961 -0.73947,-0.0297 -1.10183,-0.0332 -1.8113,-0.0992 -0.16607,-0.0155 -0.33017,-0.0496 -0.49648,-0.0621 -0.0501,-0.004 -0.15425,-0.0367 -0.15002,0.0134 0.0117,0.13885 0.12198,0.25057 0.18298,0.37586 0.002,0.11791 0.003,0.23581 0.004,0.35372 0,-1.06272 0,-2.12543 0,-3.18815 0,-1.68305 0,-3.36609 0,-5.04914 0,-1.77317 0,-3.54633 0,-5.3195 0,-2.12203 -3.00101,-2.12203 -3.00101,0 z" /><path
       style="fill:#ffffff;fill-opacity:1;stroke:none;stroke-width:1.397;stroke-opacity:1"
       id="path3"
       d="m 143.61515,137.56602 c -0.21477,0.80629 -0.46991,1.58334 -0.88055,2.31188 -0.78054,1.39824 -1.77893,2.22627 -2.97468,3.25367 -1.90966,1.64543 -3.77157,3.35925 -5.86871,4.76635 -1.04975,0.72942 -2.10041,1.37363 -3.36687,1.59973 -1.53173,0.23028 -3.04782,0.57002 -4.50564,1.09772 -1.99109,0.73387 -0.95325,3.5497 1.03784,2.81583 v 0 c 1.30126,-0.49263 2.67638,-0.7487 4.04547,-0.96868 0.69365,-0.14355 0.87258,-0.15154 1.53148,-0.40077 1.05965,-0.4008 1.98485,-1.05828 2.93716,-1.65677 2.18588,-1.48399 4.15758,-3.24316 6.14576,-4.97786 0.41997,-0.36131 1.33176,-1.13091 1.74363,-1.53953 0.76082,-0.75481 1.33323,-1.6558 1.90911,-2.55262 0.46564,-0.87139 0.83689,-1.77291 1.0706,-2.73523 0.71682,-1.99729 -2.10778,-3.01101 -2.8246,-1.01372 z" /><path
       style="fill:#ffffff;fill-opacity:1;stroke:none;stroke-width:1.397;stroke-opacity:1"
       id="path4"
       d="m 129.44468,141.98174 c 0.006,1.16857 -0.52501,2.26809 -1.04322,3.28856 -0.80777,1.36181 -1.48022,2.79712 -2.11888,4.24411 -0.34567,0.98193 -0.82664,1.90529 -1.21297,2.87001 -0.95001,2.71472 1.22308,3.31338 3.29024,4.00758 2.43228,0.75185 4.90604,1.36343 7.36767,2.01234 1.35011,0.34354 0.69612,0.18339 1.96139,0.48274 2.06513,0.48809 2.7554,-2.43244 0.69026,-2.92053 v 0 c -1.20729,-0.28503 -0.57814,-0.13125 -1.88674,-0.4641 -2.40113,-0.63288 -4.81394,-1.22962 -7.18762,-1.9588 -0.33461,-0.10934 -0.67086,-0.21379 -1.00383,-0.32804 -0.19413,-0.0666 -0.37535,-0.25166 -0.57719,-0.21443 -0.10354,0.0191 0.066,0.20271 0.0704,0.30789 0.009,0.20541 -0.0313,0.41039 -0.0311,0.61598 10e-5,0.14778 0.071,-0.66577 0.0956,-0.43289 0.36628,-0.9325 0.84506,-1.8175 1.17006,-2.76758 0.61665,-1.4018 1.27356,-2.78777 2.05429,-4.10702 0.72004,-1.4454 1.38308,-2.98865 1.36264,-4.63582 0,-2.12203 -3.001,-2.12203 -3.001,0 z" /><path
       style="fill:#ffffff;fill-opacity:1;stroke:none;stroke-width:1.397;stroke-opacity:1"
       id="path5"
       d="m 53.232735,113.88958 c 1.131448,1.09938 2.326319,2.12107 3.576177,3.08327 1.863407,1.5125 4.095141,2.32902 6.3804,2.95138 2.228213,0.56614 4.519226,0.68976 6.80674,0.63876 3.350442,-0.0682 5.989177,-2.16086 8.527412,-4.11366 1.423726,-1.10909 2.701938,-2.37095 3.937204,-3.68013 1.453091,-1.54646 -0.733928,-3.60144 -2.18702,-2.05498 v 0 c -1.120357,1.19803 -2.288346,2.3441 -3.582532,3.35845 -1.561116,1.20633 -3.144631,2.55635 -5.039281,3.21803 -0.691544,0.24151 -0.984496,0.21341 -1.725186,0.2721 -2.000832,0.0481 -4.005408,-0.0481 -5.956692,-0.53625 -1.909804,-0.50783 -3.779149,-1.1671 -5.332304,-2.43313 -0.52043,-0.39925 -1.057195,-0.79618 -1.551664,-1.22898 -0.773213,-0.67677 -1.474902,-1.43923 -2.307593,-2.0472 -1.818918,-1.09294 -3.364579,1.4794 -1.545661,2.57234 z" /><path
       style="fill:#ffffff;fill-opacity:1;stroke:none;stroke-width:1.397;stroke-opacity:1"
       id="path7"
       d="m 58.956971,101.05045 c 0.281093,1.17515 0.509381,2.36044 0.620816,3.56382 0.06301,0.87494 0.07359,1.75243 0.09124,2.62907 0.04297,2.1216 3.043351,2.06083 3.000385,-0.0608 v 0 c -0.01939,-0.95146 -0.03153,-1.90387 -0.104179,-2.85323 -0.128638,-1.31764 -0.361297,-2.61893 -0.6735,-3.90594 -0.443381,-2.075188 -3.378144,-1.448149 -2.934761,0.62704 z" /><path
       style="fill:#ffffff;fill-opacity:1;stroke:none;stroke-width:1.397;stroke-opacity:1"
       id="path8"
       d="m 71.050599,102.7401 c -0.199602,0.14917 -0.381241,-0.13181 -0.565677,-0.0837 -0.03538,0.009 0.09001,0.36812 0.131906,0.54555 0.131865,0.5585 0.137909,0.71198 0.221464,1.30789 0.148865,1.28789 0.187584,2.58447 0.200946,3.87972 0.0222,2.12191 3.023026,2.09053 3.000835,-0.0314 v 0 c -0.01513,-1.42943 -0.0607,-2.86039 -0.232127,-4.28095 -0.224496,-1.49772 -0.464283,-3.34123 -1.962327,-4.139274 -0.241094,-0.128439 -0.530013,-0.132583 -0.79502,-0.198871 -2.122027,0 -2.122027,3.000995 0,3.000995 z" /></g></svg>
